<svg width="93" height="32" fill="none" xmlns="http://www.w3.org/2000/svg"><path d="M.846 26.28l9.24-22.6a37.86 37.86 0 00-.56-1.4 7.09 7.09 0 00-.48-1 2.826 2.826 0 00-.56-.68 3.306 3.306 0 00-.72-.6h3.64l7.64 18.68c.267.133.52.293.76.48.24.16.507.347.8.56-.427-.32-.88-.493-1.36-.52l5.16 12.8h-5.96v-.32h1.52c.747 0 1.027-.253.84-.76l-4.24-10.84c-.453.32-.92.707-1.4 1.16a90.604 90.604 0 00-1.84 1.8c-.773.773-1.773 1.787-3 3.04a394.676 394.676 0 01-4.76 4.76c-.213.213-.44.4-.68.56-.213.16-.467.307-.76.44-.293.107-.6.16-.92.16-.56 0-1.053-.2-1.48-.6a4.383 4.383 0 01-.92-1.52A5.459 5.459 0 01.486 28c0-.667.12-1.24.36-1.72zm.12 1.56c0 .507.107.907.32 1.2.213.293.507.44.88.44.48 0 .987-.253 1.52-.76l5.28-5.28a559.545 559.545 0 014.12-4.16 6.3 6.3 0 01.76-.48c.213-.133.48-.253.8-.36a6.85 6.85 0 011.12-.24l-5.48-14.04c-1.867 4.533-3.4 8.24-4.6 11.12-1.2 2.88-2.16 5.187-2.88 6.92-.693 1.707-1.173 2.973-1.44 3.8-.267.827-.4 1.44-.4 1.84zM26.423 32v-.28c.454 0 .774-.12.96-.36a1.5 1.5 0 00.28-.88V1.24a6 6 0 00-.56-.64 2.447 2.447 0 00-.68-.6h3.64l18.8 31.36.04-30.08c-.026-.24-.146-.453-.36-.64-.186-.213-.52-.32-1-.32h-1.52V0h4.48v.32c-.426 0-.746.12-.96.36-.186.24-.28.533-.28.88V32h-5.92v-.28h1.48c.427 0 .707-.067.84-.2.134-.16.134-.347 0-.56-2.64-4.347-5.04-8.293-7.2-11.84a2474.19 2474.19 0 00-9.16-15.04l-1.24-2.12v28.8c.027.24.134.467.32.68.214.187.56.28 1.04.28h1.52V32h-4.52zM56.277 0l12.76 31.6 13.56-30.16c.16-.427.16-.72 0-.88-.133-.16-.346-.24-.64-.24h-1.48V0h4.48v.32c-.453 0-.906.067-1.36.2-.426.133-.72.493-.88 1.08L69.197 32v-.04l-6 .04v-.28h1.48c.453 0 .733-.08.84-.24.133-.16.147-.333.04-.52L54.237 2.08c-.133-.4-.36-.773-.68-1.12a8.877 8.877 0 00-1.04-.96h3.76zM87.17 31.76h1.2c.454 0 .76-.173.92-.52.16-.347.24-.827.24-1.44l-.04-28.08A5.507 5.507 0 0089.13 0l3.2 2.44V32h-5.36l.2-.24z" fill="#FAFAFA"/></svg>