<svg width="24" height="23" fill="none" xmlns="http://www.w3.org/2000/svg"><path d="M12 14.016a2.516 2.516 0 100-5.032 2.516 2.516 0 000 5.032z" stroke="#101010" stroke-width=".93" stroke-linecap="round" stroke-linejoin="round"/><path d="M10.832 9.272c-.656-1.384-1.348-3.109-1.348-4.24a2.516 2.516 0 115.032 0c0 1.131-.692 2.856-1.348 4.24m-3.681 2.119c-1.528-.116-3.37-.386-4.349-.952a2.516 2.516 0 012.516-4.348c.98.557 2.13 2.021 3 3.288m-.002 4.241c-.872 1.267-2.022 2.73-3.002 3.288a2.517 2.517 0 01-3.79-2.82 2.515 2.515 0 011.274-1.528c.98-.566 2.821-.836 4.349-.953m3.685 2.122c.656 1.383 1.348 3.108 1.348 4.24a2.516 2.516 0 11-5.032 0c0-1.132.692-2.857 1.348-4.24m3.684-2.122c1.527.117 3.369.387 4.348.953a2.515 2.515 0 01-2.516 4.348c-.979-.557-2.129-2.021-3-3.288m0-4.241c.871-1.267 2.021-2.731 3-3.288a2.516 2.516 0 012.516 4.348c-.98.566-2.821.836-4.348.952" stroke="#101010" stroke-width=".93" stroke-linecap="round" stroke-linejoin="round"/></svg>