<svg width="24" height="24" xmlns="http://www.w3.org/2000/svg"><path d="M16.125 3.375h-8.25a4.5 4.5 0 00-4.5 4.5v8.25a4.5 4.5 0 004.5 4.5h8.25a4.5 4.5 0 004.5-4.5v-8.25a4.5 4.5 0 00-4.5-4.5z" fill="#FAFAFA" stroke="#090909" stroke-linecap="round" stroke-linejoin="round"/><path d="M12 15.75a3.75 3.75 0 100-7.5 3.75 3.75 0 000 7.5z" fill="#363636" stroke="#090909" stroke-miterlimit="10"/><path d="M16.875 8.25a1.125 1.125 0 100-2.25 1.125 1.125 0 000 2.25z" fill="#363636" stroke="#363636"/><path d="M16.875 8.25a1.125 1.125 0 100-2.25 1.125 1.125 0 000 2.25z" fill="#363636" stroke="#363636"/></svg>